<svg xmlns="http://www.w3.org/2000/svg" xmlns:xlink="http://www.w3.org/1999/xlink" xmlns:lucid="lucid" width="1862.31" height="1246"><g transform="translate(200 0)" lucid:page-tab-id="0_0"><path d="M573.88 133.3c21.93 8.58 36.12 28.38 36.12 51.04 0 25.96-18.92 48.18-45.15 53.9l-8.6 1.76h-310.9c-36.1 0-65.35-27.94-65.35-61.6s29.24-61.6 65.36-61.6c3 0 4.73 0 7.74.66 10.75-16.28 29.24-25.52 49.88-25.52 5.6 0 10.75.66 16.34 2.2v-2.2C319.32 51.9 353.3 20 395.86 20c29.24 0 56.33 16.72 68.8 41.8 10.75-5.94 23.22-9.24 36.12-9.24 40.85 0 73.96 31.24 73.96 69.52.43 3.52 0 7.04-.86 11.22z" stroke="#000" stroke-opacity="0" fill="#00188f"/><use xlink:href="#a" transform="matrix(1,0,0,1,149.99999999999997,249) translate(214.525 14.4)"/><path d="M290.55 440h-2v-80.08h2zm0-101.42h-2V258.5h2zM289.55 455.26L284.9 441h9.28z" fill="#5e5e5e"/><path d="M289.55 458.5l-6-18.5h12zM286.3 442l3.25 10.03L292.8 442zM294.18 257.5h-9.27l4.65-14.26z" fill="#5e5e5e"/><path d="M295.56 258.5h-12.02l6-18.5zm-9.27-2h6.5l-3.25-10.03z" fill="#5e5e5e"/><use xlink:href="#b" transform="matrix(1,0,0,1,234.3377425044091,338.5833333333333) translate(0 14.222222222222223)"/><use xlink:href="#c" transform="matrix(1,0,0,1,234.3377425044091,338.5833333333333) translate(53.23456790123457 14.222222222222223)"/><path d="M468.72 349.26V440h-2v-95.26h2zm0-25.86h-2l-.03-64.9h2zM467.72 455.26L463.1 441h9.26z" fill="#5e5e5e"/><path d="M467.72 458.5l-6-18.5h12zm-3.26-16.5l3.26 10.03 3.26-10.03zM472.33 257.5h-9.27l4.63-14.26z" fill="#5e5e5e"/><path d="M473.7 258.5h-12.02l6-18.5zm-9.27-2h6.52l-3.26-10.03z" fill="#5e5e5e"/><use xlink:href="#d" transform="matrix(1,0,0,1,422.3818342151676,323.4035660848948) translate(0 14.222222222222223)"/><use xlink:href="#e" transform="matrix(1,0,0,1,422.3818342151676,323.4035660848948) translate(52.19753086419754 14.222222222222223)"/><path d="M541.02 460c13.25 0 24 10.75 24 24v192c0 13.25-10.75 24-24 24h-292c-13.26 0-24-10.75-24-24V484c0-13.25 10.74-24 24-24z" stroke="#5e5e5e" stroke-width="3" fill="#fff"/><use xlink:href="#f" transform="matrix(1,0,0,1,245.0177807877194,460) translate(96.01851851851852 124.44444444444446)"/><use xlink:href="#g" transform="matrix(1,0,0,1,245.0177807877194,460) translate(147.37654320987656 124.44444444444446)"/><path d="M252.98 496.7c-4.92 0-9-4.02-9-8.95 0-4.92 4.08-8.74 9-8.74 4.68 0 8.76 4.03 8.76 8.75 0 4.93-4.08 8.95-8.76 8.95zm17.16-30.77l-7.32 3.62-4.2-1.9-2.76-7.65h-6.24l-2.52 7.64-4.2 1.9-7.44-3.4-4.56 4.42 3.6 7.24-1.8 4.32-7.68 2.62v6.33l7.68 2.52 1.8 4.2-3.6 7.45 4.56 4.53 7.2-3.62 4.2 1.8 2.76 7.65h6.24l2.52-7.63 4.32-1.8 7.44 3.4 4.44-4.52-3.6-7.24 1.8-4.52 7.68-2.6v-6.35l-7.68-2.5-1.8-4.23 3.6-7.44-4.44-4.23z" stroke="#000" stroke-opacity="0" fill="#7f7f7f"/><path d="M305.66 534.2c-6.96 0-12.6-5.72-12.6-12.66s5.64-12.57 12.6-12.57 12.36 5.63 12.36 12.57c.24 7.04-5.4 12.67-12.36 12.67zm24.48-43.73l-10.08 5.23-6.12-2.52-3.84-10.86h-9l-3.36 10.86-6.36 2.52-10.32-4.93-6.36 6.34 5.16 10.16-2.52 6.04-10.8 3.82v8.95l10.8 3.62 2.76 6.02-4.92 10.36 6.24 6.33 10.2-5.12 6.12 2.42 3.84 10.86h9l3.6-10.86 6-2.42 10.32 4.93 6.36-6.32-5.16-10.16 2.52-6.34 10.8-3.82v-9.05l-10.8-3.6-2.52-6.04 4.92-10.36-6.48-6.03z" stroke="#000" stroke-opacity="0" fill="#7f7f7f"/><path d="M1610.98 460c13.26 0 24 10.75 24 24v192c0 13.25-10.74 24-24 24h-292c-13.25 0-24-10.75-24-24V484c0-13.25 10.75-24 24-24z" stroke="#5e5e5e" stroke-width="3" fill="#fff"/><use xlink:href="#h" transform="matrix(1,0,0,1,1314.9822192122806,460) translate(73.54938271604938 124.44444444444446)"/><use xlink:href="#i" transform="matrix(1,0,0,1,1314.9822192122806,460) translate(126.57407407407408 124.44444444444446)"/><path d="M1322.94 496.7c-4.92 0-9-4.02-9-8.95 0-4.92 4.08-8.74 9-8.74 4.68 0 8.76 4.03 8.76 8.75 0 4.93-4.08 8.95-8.76 8.95zm17.16-30.77l-7.32 3.62-4.2-1.9-2.76-7.65h-6.24l-2.52 7.64-4.2 1.9-7.44-3.4-4.56 4.42 3.6 7.24-1.8 4.32-7.68 2.62v6.33l7.68 2.52 1.8 4.2-3.6 7.45 4.56 4.53 7.2-3.62 4.2 1.8 2.76 7.65h6.24l2.52-7.63 4.32-1.8 7.44 3.4 4.44-4.52-3.6-7.24 1.8-4.52 7.68-2.6v-6.35l-7.68-2.5-1.8-4.23 3.6-7.44-4.44-4.23z" stroke="#000" stroke-opacity="0" fill="#7f7f7f"/><path d="M1375.62 534.2c-6.96 0-12.6-5.72-12.6-12.66s5.64-12.57 12.6-12.57 12.36 5.63 12.36 12.57c.24 7.04-5.4 12.67-12.36 12.67zm24.48-43.73l-10.08 5.23-6.12-2.52-3.84-10.86h-9l-3.36 10.86-6.36 2.52-10.32-4.93-6.36 6.34 5.16 10.16-2.52 6.04-10.8 3.82v8.95l10.8 3.62 2.76 6.02-4.92 10.36 6.24 6.33 10.2-5.12 6.12 2.42 3.84 10.86h9l3.6-10.86 6-2.42 10.32 4.93 6.36-6.32-5.16-10.16 2.52-6.34 10.8-3.82v-9.05l-10.8-3.6-2.52-6.04 4.92-10.36-6.48-6.03z" stroke="#000" stroke-opacity="0" fill="#7f7f7f"/><path d="M935.1 949.76c-62.7 0-114.23-11.52-114.23-26.24 0-14.72 50.56-26.24 114.24-26.24 62.4 0 112.97 11.52 112.97 26.24 0 14.72-49.6 26.24-112.96 26.24zm-159.67 151.36v48c0 22.08 58.24 46.72 134.72 50.88h50.56c76.5-4.16 134.73-23.68 134.73-47.04V928.64c0-24.96-72.32-48.64-160.64-48.64-88.33 0-159.37 22.08-159.37 47.68v173.44z" stroke="#000" stroke-opacity="0" fill="#2a3282"/><use xlink:href="#j" transform="matrix(1,0,0,1,745.4330708661416,1209) translate(136.575 14.4)"/><path class="lucid-link lucid-hotspot lucid-overlay-hotspot" d="M935.1 949.76c-62.7 0-114.23-11.52-114.23-26.24 0-14.72 50.56-26.24 114.24-26.24 62.4 0 112.97 11.52 112.97 26.24 0 14.72-49.6 26.24-112.96 26.24zm-159.67 151.36v48c0 22.08 58.24 46.72 134.72 50.88h50.56c76.5-4.16 134.73-23.68 134.73-47.04V928.64c0-24.96-72.32-48.64-160.64-48.64-88.33 0-159.37 22.08-159.37 47.68v173.44z" fill="none"/><path d="M1373.32 945.63l-.93 3.42-2.54 2.53-3.4.92h-270.03v-2h269.75l2.65-.7 1.77-1.8.72-2.63V892h2zm0-74.96h-2V720h2z" fill="#5e5e5e"/><path d="M1096.46 952.5h-1.03v-2h1.03zM1376.95 719h-9.27l4.64-14.26z" fill="#5e5e5e"/><path d="M1378.33 720h-12.03l6.02-18.5zm-9.27-2h6.5l-3.24-10.03z" fill="#5e5e5e"/><use xlink:href="#k" transform="matrix(1,0,0,1,1258.4883920517866,870.6666666666667) translate(0 14.222222222222223)"/><use xlink:href="#l" transform="matrix(1,0,0,1,1258.4883920517866,870.6666666666667) translate(71.95061728395063 14.222222222222223)"/><use xlink:href="#m" transform="matrix(1,0,0,1,1258.4883920517866,870.6666666666667) translate(189.23456790123458 14.222222222222223)"/><path d="M481 945.87l.7 2.64 1.8 1.8 2.63.7h270.8v2H485.87l-3.42-.92-2.53-2.53-.92-3.42v-73.45h2zm0-94.52h-2V702.5h2z" fill="#5e5e5e"/><path d="M481 702.53h-2v-1.03h2zM772.2 952l-14.27 4.64v-9.28z" fill="#5e5e5e"/><path d="M775.43 952l-18.5 6v-12zm-16.5 3.26l10.03-3.26-10.03-3.26z" fill="#5e5e5e"/><use xlink:href="#n" transform="matrix(1,0,0,1,394.2716049382716,851.351050647755) translate(0 14.222222222222223)"/><use xlink:href="#o" transform="matrix(1,0,0,1,394.2716049382716,851.351050647755) translate(60.14814814814815 14.222222222222223)"/><use xlink:href="#m" transform="matrix(1,0,0,1,394.2716049382716,851.351050647755) translate(133.03703703703704 14.222222222222223)"/><path d="M303.67 1115.2l.7 2.64 1.8 1.78 2.63.7h465.63v2h-465.9l-3.4-.9-2.54-2.54-.93-3.4v-109.7h2zm0-130.76h-2V720h2zM307.3 719h-9.27l4.64-14.26z" fill="#5e5e5e"/><path d="M308.68 720h-12.03l6.02-18.5zm-9.27-2h6.53l-3.26-10.03zM775.43 1122.33h-1.02v-2h1.03z" fill="#5e5e5e"/><use xlink:href="#p" transform="matrix(1,0,0,1,193.67901234567907,984.4436584549459) translate(0 14.222222222222223)"/><use xlink:href="#q" transform="matrix(1,0,0,1,193.67901234567907,984.4436584549459) translate(84.83950617283952 14.222222222222223)"/><use xlink:href="#m" transform="matrix(1,0,0,1,193.67901234567907,984.4436584549459) translate(179.55555555555557 14.222222222222223)"/><path d="M1555.67 1107.47l-.93 3.4-2.53 2.54-3.4.93h-434.87v-2h434.6l2.65-.7 1.77-1.8.72-2.63V1020h2zm0-108.8h-2V702.5h2z" fill="#5e5e5e"/><path d="M1555.67 702.53h-2v-1.03h2zM1112.93 1117.97l-14.26-4.64 14.26-4.63z" fill="#5e5e5e"/><path d="M1113.93 1119.35l-18.5-6.02 18.5-6zm-12.02-6.02l10.03 3.26v-6.53z" fill="#5e5e5e"/><g><use xlink:href="#n" transform="matrix(1,0,0,1,1458.0246913580247,998.6666666666667) translate(0 14.222222222222223)"/><use xlink:href="#q" transform="matrix(1,0,0,1,1458.0246913580247,998.6666666666667) translate(60.14814814814815 14.222222222222223)"/><use xlink:href="#m" transform="matrix(1,0,0,1,1458.0246913580247,998.6666666666667) translate(154.8641975308642 14.222222222222223)"/></g><path d="M-63.2 550h-81.96c-1.43 0-2.98 1.2-2.98 2.88v52.08c0 1.44 1.2 3.72 2.98 3.72h34.96v5.52c0 1.8-2.63 5.04-4.66 5.04h-5.84c-6.45 0-11.1 1.68-11.1 5.28 0 1.68-.24 1.68 6.1 1.68h3.2c5.02 0 5.85-2.88 10.86-2.88h12.53c4.88 0 8.7 2.88 11.92 2.88h3.22c6.45 0 6.45-.24 6.45-1.68 0-3.24-5.02-5.28-11.35-5.28h-5.96c-1.68 0-4.07-3.24-4.07-5.04v-5.52h35.08c1.44 0 2.87-2.04 2.87-3.72v-52.08c.72-1.44-.48-2.88-2.27-2.88zm-5.72 49.68h-70.16v-40.92h70.16v40.92z" stroke="#000" stroke-opacity="0" fill="#00188f"/><path d="M-153.75 596.44v-43.56c0-4.68 3.82-8.76 8.83-8.76h23.26v-32.04c0-3.24-2.62-5.88-5.84-5.88h-46.65c-3.23 0-5.85 2.64-5.85 5.88v113.88h42.95v-2.04c0-2.04.6-7.32 8.1-9.96h-41.99v-5.88h18.5c-.73-1.2-.96-2.64-.96-3.72v-2.04h-17.53v-5.88h17.18zm-17.42-75.6h40.8v8.64h-40.8v-8.64z" stroke="#000" stroke-opacity="0" fill="#00188f"/><g><use xlink:href="#r" transform="matrix(1,0,0,1,-210,635.1999999540011) translate(34.225 14.4)"/><use xlink:href="#s" transform="matrix(1,0,0,1,-210,635.1999999540011) translate(75.82499999999999 14.4)"/><use xlink:href="#t" transform="matrix(1,0,0,1,-210,635.1999999540011) translate(33.12499999999999 36)"/></g><path d="M-59.93 580h264.95" stroke="#5e5e5e" stroke-width="2" fill="none"/><path d="M-59.9 581h-1.03v-2h1.03z" fill="#5e5e5e"/><path d="M220.28 580l-14.26 4.64v-9.28z" stroke="#5e5e5e" stroke-width="2" fill="#5e5e5e"/><defs><path d="M33 0v-248h34V0H33" id="u"/><path d="M117-194c89-4 53 116 60 194h-32v-121c0-31-8-49-39-48C34-167 62-67 57 0H25l-1-190h30c1 10-1 24 2 32 11-22 29-35 61-36" id="v"/><path d="M59-47c-2 24 18 29 38 22v24C64 9 27 4 27-40v-127H5v-23h24l9-43h21v43h35v23H59v120" id="w"/><path d="M100-194c63 0 86 42 84 106H49c0 40 14 67 53 68 26 1 43-12 49-29l28 8c-11 28-37 45-77 45C44 4 14-33 15-96c1-61 26-98 85-98zm52 81c6-60-76-77-97-28-3 7-6 17-6 28h103" id="x"/><path d="M114-163C36-179 61-72 57 0H25l-1-190h30c1 12-1 29 2 39 6-27 23-49 58-41v29" id="y"/><g id="a"><use transform="matrix(0.05,0,0,0.05,0,0)" xlink:href="#u"/><use transform="matrix(0.05,0,0,0.05,5,0)" xlink:href="#v"/><use transform="matrix(0.05,0,0,0.05,15,0)" xlink:href="#w"/><use transform="matrix(0.05,0,0,0.05,20,0)" xlink:href="#x"/><use transform="matrix(0.05,0,0,0.05,30,0)" xlink:href="#y"/><use transform="matrix(0.05,0,0,0.05,35.95,0)" xlink:href="#v"/><use transform="matrix(0.05,0,0,0.05,45.95,0)" xlink:href="#x"/><use transform="matrix(0.05,0,0,0.05,55.95,0)" xlink:href="#w"/></g><path fill="#333" d="M169-182c-1-43-94-46-97-3 18 66 151 10 154 114 3 95-165 93-204 36-6-8-10-19-12-30l50-8c3 46 112 56 116 5-17-69-150-10-154-114-4-87 153-88 188-35 5 8 8 18 10 28" id="z"/><path fill="#333" d="M115-3C79 11 28 4 28-45v-112H4v-33h27l15-45h31v45h36v33H77v99c-1 23 16 31 38 25v30" id="A"/><path fill="#333" d="M110-194c64 0 96 36 96 99 0 64-35 99-97 99-61 0-95-36-95-99 0-62 34-99 96-99zm-1 164c35 0 45-28 45-65 0-40-10-65-43-65-34 0-45 26-45 65 0 36 10 65 43 65" id="B"/><path fill="#333" d="M190-63c-7 42-38 67-86 67-59 0-84-38-90-98-12-110 154-137 174-36l-49 2c-2-19-15-32-35-32-30 0-35 28-38 64-6 74 65 87 74 30" id="C"/><path fill="#333" d="M147 0L96-86 75-71V0H25v-261h50v150l67-79h53l-66 74L201 0h-54" id="D"/><g id="b"><use transform="matrix(0.04938271604938272,0,0,0.04938271604938272,0,0)" xlink:href="#z"/><use transform="matrix(0.04938271604938272,0,0,0.04938271604938272,11.851851851851853,0)" xlink:href="#A"/><use transform="matrix(0.04938271604938272,0,0,0.04938271604938272,17.728395061728396,0)" xlink:href="#B"/><use transform="matrix(0.04938271604938272,0,0,0.04938271604938272,28.543209876543205,0)" xlink:href="#C"/><use transform="matrix(0.04938271604938272,0,0,0.04938271604938272,38.41975308641975,0)" xlink:href="#D"/></g><path fill="#333" d="M182-130c37 4 62 22 62 59C244 23 116-4 24 0v-248c84 5 203-23 205 63 0 31-19 50-47 55zM76-148c40-3 101 13 101-30 0-44-60-28-101-31v61zm0 110c48-3 116 14 116-37 0-48-69-32-116-35v72" id="E"/><path fill="#333" d="M135-150c-39-12-60 13-60 57V0H25l-1-190h47c2 13-1 29 3 40 6-28 27-53 61-41v41" id="F"/><path fill="#333" d="M185-48c-13 30-37 53-82 52C43 2 14-33 14-96s30-98 90-98c62 0 83 45 84 108H66c0 31 8 55 39 56 18 0 30-7 34-22zm-45-69c5-46-57-63-70-21-2 6-4 13-4 21h74" id="G"/><g id="c"><use transform="matrix(0.04938271604938272,0,0,0.04938271604938272,0,0)" xlink:href="#E"/><use transform="matrix(0.04938271604938272,0,0,0.04938271604938272,12.790123456790125,0)" xlink:href="#F"/><use transform="matrix(0.04938271604938272,0,0,0.04938271604938272,19.703703703703706,0)" xlink:href="#B"/><use transform="matrix(0.04938271604938272,0,0,0.04938271604938272,30.518518518518523,0)" xlink:href="#D"/><use transform="matrix(0.04938271604938272,0,0,0.04938271604938272,40.39506172839506,0)" xlink:href="#G"/><use transform="matrix(0.04938271604938272,0,0,0.04938271604938272,50.27160493827161,0)" xlink:href="#F"/></g><path fill="#333" d="M76-208v77h127v40H76V0H24v-248h183v40H76" id="H"/><path fill="#333" d="M114-157C55-157 80-60 75 0H25v-261h50l-1 109c12-26 28-41 61-42 86-1 58 113 63 194h-50c-7-57 23-157-34-157" id="I"/><g id="d"><use transform="matrix(0.04938271604938272,0,0,0.04938271604938272,0,0)" xlink:href="#H"/><use transform="matrix(0.04938271604938272,0,0,0.04938271604938272,10.814814814814815,0)" xlink:href="#G"/><use transform="matrix(0.04938271604938272,0,0,0.04938271604938272,20.69135802469136,0)" xlink:href="#A"/><use transform="matrix(0.04938271604938272,0,0,0.04938271604938272,26.567901234567902,0)" xlink:href="#C"/><use transform="matrix(0.04938271604938272,0,0,0.04938271604938272,36.44444444444445,0)" xlink:href="#I"/></g><path fill="#333" d="M24-248c120-7 223 5 221 122C244-46 201 0 124 0H24v-248zM76-40c74 7 117-18 117-86 0-67-45-88-117-82v168" id="J"/><path fill="#333" d="M133-34C117-15 103 5 69 4 32 3 11-16 11-54c-1-60 55-63 116-61 1-26-3-47-28-47-18 1-26 9-28 27l-52-2c7-38 36-58 82-57s74 22 75 68l1 82c-1 14 12 18 25 15v27c-30 8-71 5-69-32zm-48 3c29 0 43-24 42-57-32 0-66-3-65 30 0 17 8 27 23 27" id="K"/><g id="e"><use transform="matrix(0.04938271604938272,0,0,0.04938271604938272,0,0)" xlink:href="#J"/><use transform="matrix(0.04938271604938272,0,0,0.04938271604938272,12.790123456790125,0)" xlink:href="#K"/><use transform="matrix(0.04938271604938272,0,0,0.04938271604938272,22.66666666666667,0)" xlink:href="#A"/><use transform="matrix(0.04938271604938272,0,0,0.04938271604938272,28.54320987654322,0)" xlink:href="#K"/></g><path fill="#333" d="M266 0h-40l-56-210L115 0H75L2-248h35L96-30l15-64 43-154h32l59 218 59-218h35" id="L"/><path fill="#333" d="M100-194c63 0 86 42 84 106H49c0 40 14 67 53 68 26 1 43-12 49-29l28 8c-11 28-37 45-77 45C44 4 14-33 15-96c1-61 26-98 85-98zm52 81c6-60-76-77-97-28-3 7-6 17-6 28h103" id="M"/><path fill="#333" d="M115-194c53 0 69 39 70 98 0 66-23 100-70 100C84 3 66-7 56-30L54 0H23l1-261h32v101c10-23 28-34 59-34zm-8 174c40 0 45-34 45-75 0-40-5-75-45-74-42 0-51 32-51 76 0 43 10 73 51 73" id="N"/><g id="f"><use transform="matrix(0.06172839506172839,0,0,0.06172839506172839,0,0)" xlink:href="#L"/><use transform="matrix(0.06172839506172839,0,0,0.06172839506172839,20.493827160493826,0)" xlink:href="#M"/><use transform="matrix(0.06172839506172839,0,0,0.06172839506172839,32.839506172839506,0)" xlink:href="#N"/></g><path fill="#333" d="M212-179c-10-28-35-45-73-45-59 0-87 40-87 99 0 60 29 101 89 101 43 0 62-24 78-52l27 14C228-24 195 4 139 4 59 4 22-46 18-125c-6-104 99-153 187-111 19 9 31 26 39 46" id="O"/><path fill="#333" d="M24 0v-261h32V0H24" id="P"/><path fill="#333" d="M24-231v-30h32v30H24zM24 0v-190h32V0H24" id="Q"/><path fill="#333" d="M117-194c89-4 53 116 60 194h-32v-121c0-31-8-49-39-48C34-167 62-67 57 0H25l-1-190h30c1 10-1 24 2 32 11-22 29-35 61-36" id="R"/><path fill="#333" d="M59-47c-2 24 18 29 38 22v24C64 9 27 4 27-40v-127H5v-23h24l9-43h21v43h35v23H59v120" id="S"/><g id="g"><use transform="matrix(0.06172839506172839,0,0,0.06172839506172839,0,0)" xlink:href="#O"/><use transform="matrix(0.06172839506172839,0,0,0.06172839506172839,15.987654320987653,0)" xlink:href="#P"/><use transform="matrix(0.06172839506172839,0,0,0.06172839506172839,20.864197530864196,0)" xlink:href="#Q"/><use transform="matrix(0.06172839506172839,0,0,0.06172839506172839,25.74074074074074,0)" xlink:href="#M"/><use transform="matrix(0.06172839506172839,0,0,0.06172839506172839,38.08641975308642,0)" xlink:href="#R"/><use transform="matrix(0.06172839506172839,0,0,0.06172839506172839,50.432098765432094,0)" xlink:href="#S"/></g><path fill="#333" d="M30-248c118-7 216 8 213 122C240-48 200 0 122 0H30v-248zM63-27c89 8 146-16 146-99s-60-101-146-95v194" id="T"/><path fill="#333" d="M141-36C126-15 110 5 73 4 37 3 15-17 15-53c-1-64 63-63 125-63 3-35-9-54-41-54-24 1-41 7-42 31l-33-3c5-37 33-52 76-52 45 0 72 20 72 64v82c-1 20 7 32 28 27v20c-31 9-61-2-59-35zM48-53c0 20 12 33 32 33 41-3 63-29 60-74-43 2-92-5-92 41" id="U"/><g id="h"><use transform="matrix(0.06172839506172839,0,0,0.06172839506172839,0,0)" xlink:href="#T"/><use transform="matrix(0.06172839506172839,0,0,0.06172839506172839,15.987654320987653,0)" xlink:href="#U"/><use transform="matrix(0.06172839506172839,0,0,0.06172839506172839,28.333333333333332,0)" xlink:href="#S"/><use transform="matrix(0.06172839506172839,0,0,0.06172839506172839,34.50617283950617,0)" xlink:href="#U"/></g><path fill="#333" d="M30-248c87 1 191-15 191 75 0 78-77 80-158 76V0H30v-248zm33 125c57 0 124 11 124-50 0-59-68-47-124-48v98" id="V"/><path fill="#333" d="M114-163C36-179 61-72 57 0H25l-1-190h30c1 12-1 29 2 39 6-27 23-49 58-41v29" id="W"/><path fill="#333" d="M100-194c62-1 85 37 85 99 1 63-27 99-86 99S16-35 15-95c0-66 28-99 85-99zM99-20c44 1 53-31 53-75 0-43-8-75-51-75s-53 32-53 75 10 74 51 75" id="X"/><path fill="#333" d="M96-169c-40 0-48 33-48 73s9 75 48 75c24 0 41-14 43-38l32 2c-6 37-31 61-74 61-59 0-76-41-82-99-10-93 101-131 147-64 4 7 5 14 7 22l-32 3c-4-21-16-35-41-35" id="Y"/><path fill="#333" d="M135-143c-3-34-86-38-87 0 15 53 115 12 119 90S17 21 10-45l28-5c4 36 97 45 98 0-10-56-113-15-118-90-4-57 82-63 122-42 12 7 21 19 24 35" id="Z"/><g id="i"><use transform="matrix(0.06172839506172839,0,0,0.06172839506172839,0,0)" xlink:href="#V"/><use transform="matrix(0.06172839506172839,0,0,0.06172839506172839,14.814814814814813,0)" xlink:href="#W"/><use transform="matrix(0.06172839506172839,0,0,0.06172839506172839,22.160493827160494,0)" xlink:href="#X"/><use transform="matrix(0.06172839506172839,0,0,0.06172839506172839,34.50617283950617,0)" xlink:href="#Y"/><use transform="matrix(0.06172839506172839,0,0,0.06172839506172839,45.61728395061728,0)" xlink:href="#M"/><use transform="matrix(0.06172839506172839,0,0,0.06172839506172839,57.962962962962955,0)" xlink:href="#Z"/><use transform="matrix(0.06172839506172839,0,0,0.06172839506172839,69.07407407407406,0)" xlink:href="#Z"/><use transform="matrix(0.06172839506172839,0,0,0.06172839506172839,80.18518518518518,0)" xlink:href="#X"/><use transform="matrix(0.06172839506172839,0,0,0.06172839506172839,92.53086419753086,0)" xlink:href="#W"/></g><path d="M30 0v-248h187v28H63v79h144v27H63v87h162V0H30" id="aa"/><path d="M24 0v-261h32V0H24" id="ab"/><path d="M141-36C126-15 110 5 73 4 37 3 15-17 15-53c-1-64 63-63 125-63 3-35-9-54-41-54-24 1-41 7-42 31l-33-3c5-37 33-52 76-52 45 0 72 20 72 64v82c-1 20 7 32 28 27v20c-31 9-61-2-59-35zM48-53c0 20 12 33 32 33 41-3 63-29 60-74-43 2-92-5-92 41" id="ac"/><path d="M135-143c-3-34-86-38-87 0 15 53 115 12 119 90S17 21 10-45l28-5c4 36 97 45 98 0-10-56-113-15-118-90-4-57 82-63 122-42 12 7 21 19 24 35" id="ad"/><path d="M24-231v-30h32v30H24zM24 0v-190h32V0H24" id="ae"/><path d="M96-169c-40 0-48 33-48 73s9 75 48 75c24 0 41-14 43-38l32 2c-6 37-31 61-74 61-59 0-76-41-82-99-10-93 101-131 147-64 4 7 5 14 7 22l-32 3c-4-21-16-35-41-35" id="af"/><path d="M106-169C34-169 62-67 57 0H25v-261h32l-1 103c12-21 28-36 61-36 89 0 53 116 60 194h-32v-121c2-32-8-49-39-48" id="ag"/><g id="j"><use transform="matrix(0.05,0,0,0.05,0,0)" xlink:href="#aa"/><use transform="matrix(0.05,0,0,0.05,12,0)" xlink:href="#ab"/><use transform="matrix(0.05,0,0,0.05,15.949999999999998,0)" xlink:href="#ac"/><use transform="matrix(0.05,0,0,0.05,25.950000000000003,0)" xlink:href="#ad"/><use transform="matrix(0.05,0,0,0.05,34.95,0)" xlink:href="#w"/><use transform="matrix(0.05,0,0,0.05,39.95,0)" xlink:href="#ae"/><use transform="matrix(0.05,0,0,0.05,43.900000000000006,0)" xlink:href="#af"/><use transform="matrix(0.05,0,0,0.05,52.900000000000006,0)" xlink:href="#ad"/><use transform="matrix(0.05,0,0,0.05,61.900000000000006,0)" xlink:href="#x"/><use transform="matrix(0.05,0,0,0.05,71.9,0)" xlink:href="#ac"/><use transform="matrix(0.05,0,0,0.05,81.9,0)" xlink:href="#y"/><use transform="matrix(0.05,0,0,0.05,87.85000000000001,0)" xlink:href="#af"/><use transform="matrix(0.05,0,0,0.05,96.85000000000001,0)" xlink:href="#ag"/></g><path fill="#333" d="M137-138c1-29-70-34-71-4 15 46 118 7 119 86 1 83-164 76-172 9l43-7c4 19 20 25 44 25 33 8 57-30 24-41C81-84 22-81 20-136c-2-80 154-74 161-7" id="ah"/><g id="k"><use transform="matrix(0.04938271604938272,0,0,0.04938271604938272,0,0)" xlink:href="#H"/><use transform="matrix(0.04938271604938272,0,0,0.04938271604938272,10.814814814814815,0)" xlink:href="#G"/><use transform="matrix(0.04938271604938272,0,0,0.04938271604938272,20.69135802469136,0)" xlink:href="#A"/><use transform="matrix(0.04938271604938272,0,0,0.04938271604938272,26.567901234567902,0)" xlink:href="#C"/><use transform="matrix(0.04938271604938272,0,0,0.04938271604938272,36.44444444444445,0)" xlink:href="#I"/><use transform="matrix(0.04938271604938272,0,0,0.04938271604938272,47.25925925925927,0)" xlink:href="#G"/><use transform="matrix(0.04938271604938272,0,0,0.04938271604938272,57.135802469135804,0)" xlink:href="#ah"/></g><path fill="#333" d="M238-95c0 69-44 99-111 99C63 4 22-25 22-93v-155h51v151c-1 38 19 59 55 60 90 1 49-130 58-211h52v153" id="ai"/><path fill="#333" d="M135-194c87-1 58 113 63 194h-50c-7-57 23-157-34-157-59 0-34 97-39 157H25l-1-190h47c2 12-1 28 3 38 12-26 28-41 61-42" id="aj"/><path fill="#333" d="M135-194c53 0 70 44 70 98 0 56-19 98-73 100-31 1-45-17-59-34 3 33 2 69 2 105H25l-1-265h48c2 10 0 23 3 31 11-24 29-35 60-35zM114-30c33 0 39-31 40-66 0-38-9-64-40-64-56 0-55 130 0 130" id="ak"/><path fill="#333" d="M88-194c31-1 46 15 58 34l-1-101h50l1 261h-48c-2-10 0-23-3-31C134-8 116 4 84 4 32 4 16-41 15-95c0-56 19-97 73-99zm17 164c33 0 40-30 41-66 1-37-9-64-41-64s-38 30-39 65c0 43 13 65 39 65" id="al"/><g id="l"><use transform="matrix(0.04938271604938272,0,0,0.04938271604938272,0,0)" xlink:href="#ai"/><use transform="matrix(0.04938271604938272,0,0,0.04938271604938272,12.790123456790125,0)" xlink:href="#aj"/><use transform="matrix(0.04938271604938272,0,0,0.04938271604938272,23.60493827160494,0)" xlink:href="#ak"/><use transform="matrix(0.04938271604938272,0,0,0.04938271604938272,34.41975308641975,0)" xlink:href="#F"/><use transform="matrix(0.04938271604938272,0,0,0.04938271604938272,41.333333333333336,0)" xlink:href="#B"/><use transform="matrix(0.04938271604938272,0,0,0.04938271604938272,52.14814814814815,0)" xlink:href="#C"/><use transform="matrix(0.04938271604938272,0,0,0.04938271604938272,62.0246913580247,0)" xlink:href="#G"/><use transform="matrix(0.04938271604938272,0,0,0.04938271604938272,71.90123456790124,0)" xlink:href="#ah"/><use transform="matrix(0.04938271604938272,0,0,0.04938271604938272,81.77777777777779,0)" xlink:href="#ah"/><use transform="matrix(0.04938271604938272,0,0,0.04938271604938272,91.65432098765433,0)" xlink:href="#G"/><use transform="matrix(0.04938271604938272,0,0,0.04938271604938272,101.53086419753087,0)" xlink:href="#al"/></g><g id="m"><use transform="matrix(0.04938271604938272,0,0,0.04938271604938272,0,0)" xlink:href="#J"/><use transform="matrix(0.04938271604938272,0,0,0.04938271604938272,12.790123456790125,0)" xlink:href="#K"/><use transform="matrix(0.04938271604938272,0,0,0.04938271604938272,22.66666666666667,0)" xlink:href="#A"/><use transform="matrix(0.04938271604938272,0,0,0.04938271604938272,28.54320987654322,0)" xlink:href="#K"/></g><g id="n"><use transform="matrix(0.04938271604938272,0,0,0.04938271604938272,0,0)" xlink:href="#z"/><use transform="matrix(0.04938271604938272,0,0,0.04938271604938272,11.851851851851853,0)" xlink:href="#A"/><use transform="matrix(0.04938271604938272,0,0,0.04938271604938272,17.728395061728396,0)" xlink:href="#B"/><use transform="matrix(0.04938271604938272,0,0,0.04938271604938272,28.543209876543205,0)" xlink:href="#F"/><use transform="matrix(0.04938271604938272,0,0,0.04938271604938272,35.45679012345679,0)" xlink:href="#G"/><use transform="matrix(0.04938271604938272,0,0,0.04938271604938272,45.333333333333336,0)" xlink:href="#ah"/></g><g id="o"><use transform="matrix(0.04938271604938272,0,0,0.04938271604938272,0,0)" xlink:href="#H"/><use transform="matrix(0.04938271604938272,0,0,0.04938271604938272,10.814814814814815,0)" xlink:href="#G"/><use transform="matrix(0.04938271604938272,0,0,0.04938271604938272,20.69135802469136,0)" xlink:href="#A"/><use transform="matrix(0.04938271604938272,0,0,0.04938271604938272,26.567901234567902,0)" xlink:href="#C"/><use transform="matrix(0.04938271604938272,0,0,0.04938271604938272,36.44444444444445,0)" xlink:href="#I"/><use transform="matrix(0.04938271604938272,0,0,0.04938271604938272,47.25925925925927,0)" xlink:href="#G"/><use transform="matrix(0.04938271604938272,0,0,0.04938271604938272,57.135802469135804,0)" xlink:href="#al"/></g><path fill="#333" d="M240-174c0 40-23 61-54 70L253 0h-59l-57-94H76V0H24v-248c93 4 217-23 216 74zM76-134c48-2 112 12 112-38 0-48-66-32-112-35v73" id="am"/><path fill="#333" d="M25-224v-37h50v37H25zM25 0v-190h50V0H25" id="an"/><path fill="#333" d="M128 0H69L1-190h53L99-40l48-150h52" id="ao"/><g id="p"><use transform="matrix(0.04938271604938272,0,0,0.04938271604938272,0,0)" xlink:href="#am"/><use transform="matrix(0.04938271604938272,0,0,0.04938271604938272,12.790123456790125,0)" xlink:href="#G"/><use transform="matrix(0.04938271604938272,0,0,0.04938271604938272,22.66666666666667,0)" xlink:href="#A"/><use transform="matrix(0.04938271604938272,0,0,0.04938271604938272,28.54320987654322,0)" xlink:href="#F"/><use transform="matrix(0.04938271604938272,0,0,0.04938271604938272,35.4567901234568,0)" xlink:href="#an"/><use transform="matrix(0.04938271604938272,0,0,0.04938271604938272,40.39506172839507,0)" xlink:href="#G"/><use transform="matrix(0.04938271604938272,0,0,0.04938271604938272,50.271604938271615,0)" xlink:href="#ao"/><use transform="matrix(0.04938271604938272,0,0,0.04938271604938272,60.14814814814817,0)" xlink:href="#G"/><use transform="matrix(0.04938271604938272,0,0,0.04938271604938272,70.02469135802471,0)" xlink:href="#ah"/></g><path fill="#333" d="M24-248c93 1 206-16 204 79-1 75-69 88-152 82V0H24v-248zm52 121c47 0 100 7 100-41 0-47-54-39-100-39v80" id="ap"/><g id="q"><use transform="matrix(0.04938271604938272,0,0,0.04938271604938272,0,0)" xlink:href="#ap"/><use transform="matrix(0.04938271604938272,0,0,0.04938271604938272,11.851851851851853,0)" xlink:href="#F"/><use transform="matrix(0.04938271604938272,0,0,0.04938271604938272,18.765432098765434,0)" xlink:href="#B"/><use transform="matrix(0.04938271604938272,0,0,0.04938271604938272,29.58024691358025,0)" xlink:href="#C"/><use transform="matrix(0.04938271604938272,0,0,0.04938271604938272,39.45679012345679,0)" xlink:href="#G"/><use transform="matrix(0.04938271604938272,0,0,0.04938271604938272,49.333333333333336,0)" xlink:href="#ah"/><use transform="matrix(0.04938271604938272,0,0,0.04938271604938272,59.20987654320988,0)" xlink:href="#ah"/><use transform="matrix(0.04938271604938272,0,0,0.04938271604938272,69.08641975308643,0)" xlink:href="#G"/><use transform="matrix(0.04938271604938272,0,0,0.04938271604938272,78.96296296296298,0)" xlink:href="#al"/></g><path d="M266 0h-40l-56-210L115 0H75L2-248h35L96-30l15-64 43-154h32l59 218 59-218h35" id="aq"/><path d="M115-194c53 0 69 39 70 98 0 66-23 100-70 100C84 3 66-7 56-30L54 0H23l1-261h32v101c10-23 28-34 59-34zm-8 174c40 0 45-34 45-75 0-40-5-75-45-74-42 0-51 32-51 76 0 43 10 73 51 73" id="ar"/><g id="r"><use transform="matrix(0.05,0,0,0.05,0,0)" xlink:href="#aq"/><use transform="matrix(0.05,0,0,0.05,16.599999999999998,0)" xlink:href="#x"/><use transform="matrix(0.05,0,0,0.05,26.599999999999994,0)" xlink:href="#ar"/></g><path d="M101-234c-31-9-42 10-38 44h38v23H63V0H32v-167H5v-23h27c-7-52 17-82 69-68v24" id="as"/><g id="s"><use transform="matrix(0.05,0,0,0.05,0,0)" xlink:href="#u"/><use transform="matrix(0.05,0,0,0.05,5,0)" xlink:href="#v"/><use transform="matrix(0.05,0,0,0.05,15,0)" xlink:href="#w"/><use transform="matrix(0.05,0,0,0.05,20,0)" xlink:href="#x"/><use transform="matrix(0.05,0,0,0.05,30,0)" xlink:href="#y"/><use transform="matrix(0.05,0,0,0.05,35.95,0)" xlink:href="#as"/><use transform="matrix(0.05,0,0,0.05,40.95,0)" xlink:href="#ac"/><use transform="matrix(0.05,0,0,0.05,50.95,0)" xlink:href="#af"/><use transform="matrix(0.05,0,0,0.05,59.95,0)" xlink:href="#x"/></g><path d="M205 0l-28-72H64L36 0H1l101-248h38L239 0h-34zm-38-99l-47-123c-12 45-31 82-46 123h93" id="at"/><path d="M85-194c31 0 48 13 60 33l-1-100h32l1 261h-30c-2-10 0-23-3-31C134-8 116 4 85 4 32 4 16-35 15-94c0-66 23-100 70-100zm9 24c-40 0-46 34-46 75 0 40 6 74 45 74 42 0 51-32 51-76 0-42-9-74-50-73" id="au"/><path d="M210-169c-67 3-38 105-44 169h-31v-121c0-29-5-50-35-48C34-165 62-65 56 0H25l-1-190h30c1 10-1 24 2 32 10-44 99-50 107 0 11-21 27-35 58-36 85-2 47 119 55 194h-31v-121c0-29-5-49-35-48" id="av"/><path d="M100-194c62-1 85 37 85 99 1 63-27 99-86 99S16-35 15-95c0-66 28-99 85-99zM99-20c44 1 53-31 53-75 0-43-8-75-51-75s-53 32-53 75 10 74 51 75" id="aw"/><g id="t"><use transform="matrix(0.05,0,0,0.05,0,0)" xlink:href="#at"/><use transform="matrix(0.05,0,0,0.05,12,0)" xlink:href="#au"/><use transform="matrix(0.05,0,0,0.05,22,0)" xlink:href="#av"/><use transform="matrix(0.05,0,0,0.05,36.95,0)" xlink:href="#ae"/><use transform="matrix(0.05,0,0,0.05,40.900000000000006,0)" xlink:href="#v"/><use transform="matrix(0.05,0,0,0.05,50.900000000000006,0)" xlink:href="#ae"/><use transform="matrix(0.05,0,0,0.05,54.85,0)" xlink:href="#ad"/><use transform="matrix(0.05,0,0,0.05,63.85,0)" xlink:href="#w"/><use transform="matrix(0.05,0,0,0.05,68.85000000000001,0)" xlink:href="#y"/><use transform="matrix(0.05,0,0,0.05,74.80000000000001,0)" xlink:href="#ac"/><use transform="matrix(0.05,0,0,0.05,84.80000000000001,0)" xlink:href="#w"/><use transform="matrix(0.05,0,0,0.05,89.80000000000001,0)" xlink:href="#ae"/><use transform="matrix(0.05,0,0,0.05,93.75000000000001,0)" xlink:href="#aw"/><use transform="matrix(0.05,0,0,0.05,103.75,0)" xlink:href="#v"/></g></defs></g></svg>